<svg xmlns="http://www.w3.org/2000/svg" viewBox="0 0 420 520"><path d="M62 520c5-134 57-211 148-211s143 77 148 211" fill="#fff"/><ellipse cx="210" cy="199" rx="112" ry="137" fill="#D99A7E"/><path d="M99 199C94 91 150 30 225 39c76 9 112 81 94 167-21-32-43-66-49-104-46 52-102 78-171 97Z" fill="#24394C"/><path d="M137 219h30M252 219h30" stroke="#173047" stroke-width="8" stroke-linecap="round"/><path d="M165 300c28 21 63 21 91 0" stroke="#9B574F" stroke-width="7" stroke-linecap="round" fill="none"/><path d="M109 351c42 41 160 41 202 0" fill="none" stroke="#D99A7E" stroke-width="34"/><path d="M95 520c8-92 33-153 73-183l42 53 42-53c40 30 65 91 73 183" fill="#fff"/><path d="M210 390v130" stroke="#DDEBF0" stroke-width="26"/><circle cx="210" cy="430" r="11" fill="#2F7FB8"/></svg>
